<svg viewBox="0 0 200 200" xmlns="http://www.w3.org/2000/svg" role="img" aria-label="Sunflower">
  <defs>
    <radialGradient id="sf-petal" cx="50%" cy="35%" r="75%">
      <stop offset="0%" stop-color="#ffe169"></stop>
      <stop offset="55%" stop-color="#ffc02e"></stop>
      <stop offset="100%" stop-color="#f59300"></stop>
    </radialGradient>
    <radialGradient id="sf-center" cx="42%" cy="34%" r="75%">
      <stop offset="0%" stop-color="#8a5a2b"></stop>
      <stop offset="55%" stop-color="#6b3f17"></stop>
      <stop offset="100%" stop-color="#4d2c0d"></stop>
    </radialGradient>
    <radialGradient id="sf-centerHi" cx="40%" cy="30%" r="55%">
      <stop offset="0%" stop-color="#c98a44" stop-opacity="0.85"></stop>
      <stop offset="100%" stop-color="#c98a44" stop-opacity="0"></stop>
    </radialGradient>
  </defs>

  
  <g>
    <ellipse cx="100" cy="50" rx="16" ry="26" fill="url(#sf-petal)"></ellipse>
    <g transform="rotate(30 100 100)"><ellipse cx="100" cy="50" rx="16" ry="26" fill="url(#sf-petal)"></ellipse></g>
    <g transform="rotate(60 100 100)"><ellipse cx="100" cy="50" rx="16" ry="26" fill="url(#sf-petal)"></ellipse></g>
    <g transform="rotate(90 100 100)"><ellipse cx="100" cy="50" rx="16" ry="26" fill="url(#sf-petal)"></ellipse></g>
    <g transform="rotate(120 100 100)"><ellipse cx="100" cy="50" rx="16" ry="26" fill="url(#sf-petal)"></ellipse></g>
    <g transform="rotate(150 100 100)"><ellipse cx="100" cy="50" rx="16" ry="26" fill="url(#sf-petal)"></ellipse></g>
    <g transform="rotate(180 100 100)"><ellipse cx="100" cy="50" rx="16" ry="26" fill="url(#sf-petal)"></ellipse></g>
    <g transform="rotate(210 100 100)"><ellipse cx="100" cy="50" rx="16" ry="26" fill="url(#sf-petal)"></ellipse></g>
    <g transform="rotate(240 100 100)"><ellipse cx="100" cy="50" rx="16" ry="26" fill="url(#sf-petal)"></ellipse></g>
    <g transform="rotate(270 100 100)"><ellipse cx="100" cy="50" rx="16" ry="26" fill="url(#sf-petal)"></ellipse></g>
    <g transform="rotate(300 100 100)"><ellipse cx="100" cy="50" rx="16" ry="26" fill="url(#sf-petal)"></ellipse></g>
    <g transform="rotate(330 100 100)"><ellipse cx="100" cy="50" rx="16" ry="26" fill="url(#sf-petal)"></ellipse></g>
  </g>

  
  <circle cx="100" cy="100" r="42" fill="url(#sf-center)"></circle>
  <ellipse cx="90" cy="88" rx="25" ry="21" fill="url(#sf-centerHi)"></ellipse>

  
  <g fill="#3a2109" opacity="0.55">
    <circle cx="100" cy="100" r="2.4"></circle>
    <circle cx="111" cy="98" r="2.4"></circle><circle cx="89" cy="98" r="2.4"></circle>
    <circle cx="105" cy="109" r="2.4"></circle><circle cx="95" cy="109" r="2.4"></circle>
    <circle cx="116" cy="107" r="2.4"></circle><circle cx="84" cy="107" r="2.4"></circle>
    <circle cx="100" cy="88" r="2.4"></circle>
    <circle cx="110" cy="87" r="2.2"></circle><circle cx="90" cy="87" r="2.2"></circle>
    <circle cx="100" cy="114" r="2.2"></circle>
    <circle cx="119" cy="97" r="2"></circle><circle cx="81" cy="97" r="2"></circle>
  </g>

  
  <ellipse cx="88" cy="98" rx="4.4" ry="5.4" fill="#1b1208"></ellipse>
  <ellipse cx="89.4" cy="96" rx="1.4" ry="1.7" fill="#fff" opacity="0.9"></ellipse>
  <ellipse cx="112" cy="98" rx="4.4" ry="5.4" fill="#1b1208"></ellipse>
  <ellipse cx="113.4" cy="96" rx="1.4" ry="1.7" fill="#fff" opacity="0.9"></ellipse>
  <path d="M91 110 Q 100 119, 109 110" fill="none" stroke="#1b1208" stroke-width="3.4" stroke-linecap="round"></path>
  <ellipse cx="80" cy="107" rx="5" ry="3" fill="#ff8a5c" opacity="0.45"></ellipse>
  <ellipse cx="120" cy="107" rx="5" ry="3" fill="#ff8a5c" opacity="0.45"></ellipse>
</svg>